<mxfile host="app.diagrams.net" modified="2021-04-25T08:36:59.690Z" agent="5.0 (Macintosh; Intel Mac OS X 10_15_7) AppleWebKit/537.36 (KHTML, like Gecko) Chrome/90.0.4430.72 Safari/537.36" etag="BXm1EzKqk0darsnOZvhh" version="14.6.6" type="github">
  <diagram id="VvBguyoA1NxEOyyfGwUk" name="Page-1">
    <mxGraphModel dx="1298" dy="2035" grid="1" gridSize="10" guides="1" tooltips="1" connect="1" arrows="1" fold="1" page="1" pageScale="1" pageWidth="827" pageHeight="1169" math="0" shadow="0">
      <root>
        <mxCell id="0" />
        <mxCell id="1" parent="0" />
        <mxCell id="HswgILT7rwCR9YleaQXq-21" style="edgeStyle=orthogonalEdgeStyle;rounded=0;orthogonalLoop=1;jettySize=auto;html=1;exitX=1;exitY=0.5;exitDx=0;exitDy=0;" edge="1" parent="1" source="HswgILT7rwCR9YleaQXq-1" target="HswgILT7rwCR9YleaQXq-19">
          <mxGeometry relative="1" as="geometry" />
        </mxCell>
        <mxCell id="HswgILT7rwCR9YleaQXq-22" style="edgeStyle=orthogonalEdgeStyle;rounded=0;orthogonalLoop=1;jettySize=auto;html=1;exitX=1;exitY=0.5;exitDx=0;exitDy=0;entryX=0;entryY=0.5;entryDx=0;entryDy=0;" edge="1" parent="1" source="HswgILT7rwCR9YleaQXq-1" target="HswgILT7rwCR9YleaQXq-20">
          <mxGeometry relative="1" as="geometry" />
        </mxCell>
        <mxCell id="HswgILT7rwCR9YleaQXq-1" value="electron推流应用&lt;br&gt;发布系统" style="rounded=0;whiteSpace=wrap;html=1;" vertex="1" parent="1">
          <mxGeometry x="160" y="30" width="120" height="50" as="geometry" />
        </mxCell>
        <mxCell id="HswgILT7rwCR9YleaQXq-39" style="edgeStyle=orthogonalEdgeStyle;rounded=0;orthogonalLoop=1;jettySize=auto;html=1;exitX=0.5;exitY=1;exitDx=0;exitDy=0;entryX=0.5;entryY=0;entryDx=0;entryDy=0;" edge="1" parent="1" source="HswgILT7rwCR9YleaQXq-2" target="HswgILT7rwCR9YleaQXq-9">
          <mxGeometry relative="1" as="geometry" />
        </mxCell>
        <mxCell id="HswgILT7rwCR9YleaQXq-2" value="DEF" style="rounded=0;whiteSpace=wrap;html=1;" vertex="1" parent="1">
          <mxGeometry x="660" y="255" width="100" height="40" as="geometry" />
        </mxCell>
        <mxCell id="HswgILT7rwCR9YleaQXq-3" value="OSS" style="rounded=0;whiteSpace=wrap;html=1;" vertex="1" parent="1">
          <mxGeometry x="660" y="390" width="100" height="40" as="geometry" />
        </mxCell>
        <mxCell id="HswgILT7rwCR9YleaQXq-37" style="edgeStyle=orthogonalEdgeStyle;rounded=0;orthogonalLoop=1;jettySize=auto;html=1;exitX=1;exitY=0.5;exitDx=0;exitDy=0;" edge="1" parent="1" source="HswgILT7rwCR9YleaQXq-7" target="HswgILT7rwCR9YleaQXq-2">
          <mxGeometry relative="1" as="geometry" />
        </mxCell>
        <mxCell id="HswgILT7rwCR9YleaQXq-7" value="发布" style="rounded=1;whiteSpace=wrap;html=1;" vertex="1" parent="1">
          <mxGeometry x="520" y="255" width="70" height="40" as="geometry" />
        </mxCell>
        <mxCell id="HswgILT7rwCR9YleaQXq-41" style="edgeStyle=orthogonalEdgeStyle;rounded=0;orthogonalLoop=1;jettySize=auto;html=1;exitX=1;exitY=0.5;exitDx=0;exitDy=0;entryX=0;entryY=0.5;entryDx=0;entryDy=0;" edge="1" parent="1" source="HswgILT7rwCR9YleaQXq-8" target="HswgILT7rwCR9YleaQXq-3">
          <mxGeometry relative="1" as="geometry" />
        </mxCell>
        <mxCell id="HswgILT7rwCR9YleaQXq-8" value="回滚" style="rounded=1;whiteSpace=wrap;html=1;" vertex="1" parent="1">
          <mxGeometry x="520" y="390" width="70" height="40" as="geometry" />
        </mxCell>
        <mxCell id="HswgILT7rwCR9YleaQXq-40" style="edgeStyle=orthogonalEdgeStyle;rounded=0;orthogonalLoop=1;jettySize=auto;html=1;exitX=0.5;exitY=1;exitDx=0;exitDy=0;entryX=0.5;entryY=0;entryDx=0;entryDy=0;" edge="1" parent="1" source="HswgILT7rwCR9YleaQXq-9" target="HswgILT7rwCR9YleaQXq-3">
          <mxGeometry relative="1" as="geometry" />
        </mxCell>
        <mxCell id="HswgILT7rwCR9YleaQXq-9" value="GitLab" style="rounded=0;whiteSpace=wrap;html=1;" vertex="1" parent="1">
          <mxGeometry x="660" y="330" width="100" height="40" as="geometry" />
        </mxCell>
        <mxCell id="HswgILT7rwCR9YleaQXq-26" style="edgeStyle=orthogonalEdgeStyle;rounded=0;orthogonalLoop=1;jettySize=auto;html=1;exitX=1;exitY=0.5;exitDx=0;exitDy=0;entryX=0;entryY=0.5;entryDx=0;entryDy=0;" edge="1" parent="1" source="HswgILT7rwCR9YleaQXq-12" target="HswgILT7rwCR9YleaQXq-24">
          <mxGeometry relative="1" as="geometry" />
        </mxCell>
        <mxCell id="HswgILT7rwCR9YleaQXq-27" style="edgeStyle=orthogonalEdgeStyle;rounded=0;orthogonalLoop=1;jettySize=auto;html=1;exitX=1;exitY=0.5;exitDx=0;exitDy=0;entryX=0;entryY=0.5;entryDx=0;entryDy=0;" edge="1" parent="1" source="HswgILT7rwCR9YleaQXq-12" target="HswgILT7rwCR9YleaQXq-13">
          <mxGeometry relative="1" as="geometry" />
        </mxCell>
        <mxCell id="HswgILT7rwCR9YleaQXq-28" style="edgeStyle=orthogonalEdgeStyle;rounded=0;orthogonalLoop=1;jettySize=auto;html=1;exitX=1;exitY=0.5;exitDx=0;exitDy=0;entryX=0;entryY=0.5;entryDx=0;entryDy=0;" edge="1" parent="1" source="HswgILT7rwCR9YleaQXq-12" target="HswgILT7rwCR9YleaQXq-15">
          <mxGeometry relative="1" as="geometry" />
        </mxCell>
        <mxCell id="HswgILT7rwCR9YleaQXq-29" style="edgeStyle=orthogonalEdgeStyle;rounded=0;orthogonalLoop=1;jettySize=auto;html=1;exitX=1;exitY=0.5;exitDx=0;exitDy=0;entryX=0;entryY=0.5;entryDx=0;entryDy=0;" edge="1" parent="1" source="HswgILT7rwCR9YleaQXq-12" target="HswgILT7rwCR9YleaQXq-16">
          <mxGeometry relative="1" as="geometry" />
        </mxCell>
        <mxCell id="HswgILT7rwCR9YleaQXq-30" style="edgeStyle=orthogonalEdgeStyle;rounded=0;orthogonalLoop=1;jettySize=auto;html=1;exitX=1;exitY=0.5;exitDx=0;exitDy=0;entryX=0;entryY=0.5;entryDx=0;entryDy=0;" edge="1" parent="1" source="HswgILT7rwCR9YleaQXq-12" target="HswgILT7rwCR9YleaQXq-14">
          <mxGeometry relative="1" as="geometry" />
        </mxCell>
        <mxCell id="HswgILT7rwCR9YleaQXq-12" value="配置" style="rounded=1;whiteSpace=wrap;html=1;" vertex="1" parent="1">
          <mxGeometry x="520" y="35" width="70" height="40" as="geometry" />
        </mxCell>
        <mxCell id="HswgILT7rwCR9YleaQXq-13" value="登录" style="rounded=1;whiteSpace=wrap;html=1;" vertex="1" parent="1">
          <mxGeometry x="680" y="-10" width="80" height="35" as="geometry" />
        </mxCell>
        <mxCell id="HswgILT7rwCR9YleaQXq-14" value="工具" style="rounded=1;whiteSpace=wrap;html=1;" vertex="1" parent="1">
          <mxGeometry x="680" y="130" width="80" height="35" as="geometry" />
        </mxCell>
        <mxCell id="HswgILT7rwCR9YleaQXq-15" value="推流" style="rounded=1;whiteSpace=wrap;html=1;" vertex="1" parent="1">
          <mxGeometry x="680" y="37.5" width="80" height="35" as="geometry" />
        </mxCell>
        <mxCell id="HswgILT7rwCR9YleaQXq-16" value="评论" style="rounded=1;whiteSpace=wrap;html=1;" vertex="1" parent="1">
          <mxGeometry x="680" y="82.5" width="80" height="35" as="geometry" />
        </mxCell>
        <mxCell id="HswgILT7rwCR9YleaQXq-25" style="edgeStyle=orthogonalEdgeStyle;rounded=0;orthogonalLoop=1;jettySize=auto;html=1;exitX=1;exitY=0.5;exitDx=0;exitDy=0;entryX=0;entryY=0.5;entryDx=0;entryDy=0;" edge="1" parent="1" source="HswgILT7rwCR9YleaQXq-19" target="HswgILT7rwCR9YleaQXq-12">
          <mxGeometry relative="1" as="geometry" />
        </mxCell>
        <mxCell id="HswgILT7rwCR9YleaQXq-33" style="edgeStyle=orthogonalEdgeStyle;rounded=0;orthogonalLoop=1;jettySize=auto;html=1;exitX=1;exitY=0.5;exitDx=0;exitDy=0;entryX=0;entryY=0.5;entryDx=0;entryDy=0;" edge="1" parent="1" source="HswgILT7rwCR9YleaQXq-19" target="HswgILT7rwCR9YleaQXq-7">
          <mxGeometry relative="1" as="geometry" />
        </mxCell>
        <mxCell id="HswgILT7rwCR9YleaQXq-34" style="edgeStyle=orthogonalEdgeStyle;rounded=0;orthogonalLoop=1;jettySize=auto;html=1;exitX=1;exitY=0.5;exitDx=0;exitDy=0;entryX=0;entryY=0.5;entryDx=0;entryDy=0;" edge="1" parent="1" source="HswgILT7rwCR9YleaQXq-19" target="HswgILT7rwCR9YleaQXq-8">
          <mxGeometry relative="1" as="geometry">
            <mxPoint x="480" y="380" as="targetPoint" />
          </mxGeometry>
        </mxCell>
        <mxCell id="HswgILT7rwCR9YleaQXq-19" value="应用列表" style="rounded=1;whiteSpace=wrap;html=1;" vertex="1" parent="1">
          <mxGeometry x="350" y="32.5" width="100" height="45" as="geometry" />
        </mxCell>
        <mxCell id="HswgILT7rwCR9YleaQXq-43" value="" style="edgeStyle=orthogonalEdgeStyle;rounded=0;orthogonalLoop=1;jettySize=auto;html=1;" edge="1" parent="1" source="HswgILT7rwCR9YleaQXq-20">
          <mxGeometry relative="1" as="geometry">
            <mxPoint x="500" y="582.5" as="targetPoint" />
          </mxGeometry>
        </mxCell>
        <mxCell id="HswgILT7rwCR9YleaQXq-46" style="edgeStyle=orthogonalEdgeStyle;rounded=0;orthogonalLoop=1;jettySize=auto;html=1;exitX=1;exitY=0.5;exitDx=0;exitDy=0;entryX=0;entryY=0.5;entryDx=0;entryDy=0;" edge="1" parent="1" source="HswgILT7rwCR9YleaQXq-20" target="HswgILT7rwCR9YleaQXq-45">
          <mxGeometry relative="1" as="geometry" />
        </mxCell>
        <mxCell id="HswgILT7rwCR9YleaQXq-20" value="应用管理" style="rounded=1;whiteSpace=wrap;html=1;dashed=1;" vertex="1" parent="1">
          <mxGeometry x="350" y="560" width="100" height="45" as="geometry" />
        </mxCell>
        <mxCell id="HswgILT7rwCR9YleaQXq-24" value="仓库" style="rounded=1;whiteSpace=wrap;html=1;" vertex="1" parent="1">
          <mxGeometry x="680" y="-55" width="80" height="35" as="geometry" />
        </mxCell>
        <mxCell id="HswgILT7rwCR9YleaQXq-44" value="创建应用" style="shape=process;whiteSpace=wrap;html=1;backgroundOutline=1;dashed=1;" vertex="1" parent="1">
          <mxGeometry x="500" y="567.5" width="120" height="30" as="geometry" />
        </mxCell>
        <mxCell id="HswgILT7rwCR9YleaQXq-45" value="删除应用" style="shape=process;whiteSpace=wrap;html=1;backgroundOutline=1;dashed=1;" vertex="1" parent="1">
          <mxGeometry x="500" y="620" width="120" height="30" as="geometry" />
        </mxCell>
      </root>
    </mxGraphModel>
  </diagram>
</mxfile>
